<svg xmlns="http://www.w3.org/2000/svg" width="64" height="8" viewBox="0 40 64 8">
    <!-- viewBox should be target path's "{left} {top} {width} {height}" -->
    <g fill="none" fill-rule="evenodd">
        <!-- left:3 top: 0 width:58 height:4 -->
        <path fill="#c9d1d9" fill-rule="nonzero"
            d="M5 0a2 2 0 1 1 0 4 2 2 0 0 1 0-4zm27 0a2 2 0 1 1 0 4 2 2 0 0 1 0-4zm27 0a2 2 0 1 1 0 4 2 2 0 0 1 0-4z" />
        <!-- left:0 top:20 width:64 height:3 -->
        <path fill="#c9d1d9" d="M0 20h64v3H0z" />
        <!-- left:0 top:40 width:64 height:8 -->
        <path fill-rule="nonzero" stroke="#c9d1d9" stroke-width="2"
            d="M0 48l7.999-8 8 8 8-8 8 8 8-8 8 8 8-8 8 8" />
    </g>
</svg>